<?xml version="1.0" encoding="UTF-8"?>
<svg width="778px" height="142px" viewBox="0 0 778 142" version="1.1" xmlns="http://www.w3.org/2000/svg" xmlns:xlink="http://www.w3.org/1999/xlink">
    <!-- Generator: Sketch 48.2 (47327) - http://www.bohemiancoding.com/sketch -->
    <title>logo-axiomzen-blk</title>
    <desc>Created with Sketch.</desc>
    <defs>
        <polygon id="path-1" points="0.06 0.426 265.451 0.426 265.451 139.322 0.06 139.322"></polygon>
    </defs>
    <g id="Page-1" stroke="none" stroke-width="1" fill="none" fill-rule="evenodd">
        <g id="logo-axiomzen-blk">
            <g id="Group-3">
                <g id="Fill-1-Clipped">
                    <mask id="mask-2" fill="white">
                        <use xlink:href="#path-1"></use>
                    </mask>
                    <g id="path-1"></g>
                    <path d="M43.439,80.221 C44.745,75.561 62.457,27.833 63.389,25.409 C63.947,23.917 64.693,22.612 65.44,22.612 C65.998,22.612 66.371,23.917 66.93,25.222 C67.863,28.019 82.964,74.628 84.643,80.221 L43.439,80.221 Z M263.586,132.61 L255.01,132.61 C252.959,132.61 252.4,131.305 252.027,127.763 C251.841,125.713 251.841,119 251.841,111.73 L251.841,91.407 C251.841,75.934 251.841,64.188 252.213,61.018 C252.4,59.713 252.213,58.781 251.281,58.781 C250.163,58.781 249.23,59.154 247.74,59.9 C240.654,63.815 233.57,66.797 227.604,69.035 C226.671,69.408 226.299,69.781 226.299,70.34 L226.299,72.018 C226.299,72.764 226.671,73.137 227.977,73.323 C237.298,74.815 238.417,78.17 238.417,84.509 L238.417,111.916 C238.417,117.509 238.417,123.289 238.231,128.881 C238.044,131.864 237.298,132.61 235.247,132.61 L227.413,132.61 C227.413,132.61 226.87,132.61 226.112,132.61 C224.532,132.61 222.012,132.61 221.509,132.61 L218.525,132.61 C215.169,132.61 212.559,131.305 210.322,128.695 C202.118,118.814 194.661,107.255 187.203,96.255 C191.119,91.407 206.966,71.832 210.136,69.221 C211.999,67.73 213.864,66.984 217.407,66.984 L220.39,66.984 C221.695,66.984 221.88,66.611 221.88,65.492 L221.88,62.137 C221.88,61.018 221.695,60.272 220.203,60.272 C218.898,60.272 217.034,60.832 209.577,60.832 C198.95,60.832 195.78,60.272 193.543,60.272 C192.797,60.272 192.61,60.645 192.61,61.764 L192.61,65.68 C192.61,66.424 192.797,66.984 193.729,66.984 L195.967,66.984 C199.135,66.984 199.696,70.713 198.017,72.95 L183.848,91.594 L172.289,73.323 C170.052,69.967 170.052,66.984 173.035,66.984 L174.713,66.984 C175.459,66.984 175.832,66.611 175.832,65.492 L175.832,61.951 C175.832,60.832 175.645,60.272 174.713,60.272 C173.035,60.272 166.136,60.832 157.374,60.832 C148.611,60.832 143.577,60.272 142.086,60.272 C140.78,60.272 140.594,60.645 140.594,61.951 L140.594,65.68 C140.594,66.238 140.78,66.984 141.899,66.984 L147.12,66.984 C149.73,66.984 152.339,67.73 153.831,69.594 C158.12,74.255 168.746,89.543 175.832,100.543 C172.662,104.085 155.323,127.203 151.78,130.373 C150.289,131.864 149.522,132.321 144.137,132.61 C138.752,132.898 136.861,132.968 131.196,132.536 C125.532,132.105 121.557,129.814 118.388,123.662 C115.777,118.254 103.659,83.577 99.371,69.035 C95.829,57.103 81.286,15.341 77.745,3.596 C77.184,1.545 76.811,0.426 75.694,0.426 C74.761,0.426 74.202,1.172 73.27,2.104 C71.219,4.714 63.016,10.307 57.795,11.426 C56.49,11.799 56.117,12.544 56.117,13.104 C56.117,13.85 56.863,14.782 57.422,15.528 C58.728,17.579 57.795,20.002 57.236,21.866 C55.558,26.9 40.457,66.984 39.152,70.713 C33.745,86.001 20.135,120.492 18.831,123.475 C16.22,129.441 13.61,132.051 8.016,132.051 L1.491,132.051 C0.746,132.051 0,132.424 0,133.356 L0,137.83 C0,138.949 0.373,139.322 1.305,139.322 C3.915,139.322 40.271,139.322 42.88,139.322 C43.812,139.322 44.372,138.949 44.372,137.645 L44.372,133.356 C44.372,132.424 43.812,132.051 42.507,132.051 L33.745,132.051 C29.643,132.051 27.406,130.559 27.406,127.949 C27.406,127.017 27.779,125.152 27.966,123.848 C28.898,119.932 39.152,91.594 41.015,86.933 L86.88,86.933 C89.489,94.39 97.134,118.254 98.625,124.967 C99.931,130.186 98.253,132.051 93.032,132.051 L88.372,132.051 C87.253,132.051 86.693,132.237 86.693,133.356 L86.693,137.645 C86.693,138.762 87.253,139.322 88.185,139.322 C92.473,139.322 166.695,139.322 168.373,139.322 C169.492,139.322 169.679,138.576 169.679,137.83 L169.679,134.102 C169.679,133.356 169.492,132.61 168.746,132.61 L164.831,132.61 C162.594,132.61 161.849,130.559 162.781,128.508 C164.085,125.525 176.39,108.933 179,105.204 L192.424,126.644 C194.475,129.814 193.356,132.61 191.305,132.61 L188.508,132.61 C187.203,132.61 187.018,133.17 187.018,134.475 L187.018,137.645 C187.018,138.576 187.203,139.322 188.508,139.322 C190.559,139.322 262.281,139.322 263.773,139.322 C265.078,139.322 265.451,138.762 265.451,137.457 L265.451,134.289 C265.451,133.17 265.078,132.61 263.586,132.61 Z" id="Fill-1" stroke="#000000" mask="url(#mask-2)" fill-rule="nonzero"></path>
                </g>
            </g>
            <path d="M305.628,135.407 C296.866,135.407 291.459,131.864 287.171,125.713 C281.205,117.136 280.086,110.051 280.086,99.611 C280.086,85.442 282.697,77.797 289.968,70.34 C294.442,65.492 299.29,64.373 304.323,64.373 C313.831,64.373 328.933,77.424 328.933,98.119 C328.933,118.068 319.798,135.407 305.628,135.407 Z M305.815,58.781 C299.663,58.781 290.528,60.272 280.832,67.73 C269.832,76.305 264.799,88.237 264.799,97.747 C264.799,110.984 266.477,117.882 275.053,128.135 C282.883,137.457 294.442,141 303.391,141 C326.324,141 344.594,120.305 344.594,99.984 C344.594,87.866 340.306,78.17 331.916,69.594 C326.324,64.002 316.069,58.781 305.815,58.781 Z" id="Fill-4" stroke="#000000" fill-rule="nonzero"></path>
            <path d="M496.857,42.56 L499.283,43.679 C499.841,44.052 500.4,44.239 500.959,43.493 C504.502,37.714 519.791,18.883 523.705,15.714 C526.315,13.663 528.553,12.731 531.163,12.731 L581.688,12.731 C580.636,14.533 526.371,90.362 507.177,116.187 L527.944,116.187 C551.666,83.409 603.142,13.341 605.923,10.121 C607.974,7.697 607.602,5.695 604.618,5.647 C603.984,5.637 601.83,5.618 601.83,5.618 C601.83,5.618 524.53,5.59 514.197,5.647 C512.694,5.656 511.125,5.637 510.379,5.645 C508.977,5.662 508.492,6.308 507.912,8.232 L496.486,40.882 C496.111,42.001 496.299,42.189 496.857,42.56" id="Fill-5" stroke="#000000" fill-rule="nonzero"></path>
            <path d="M612.822,105.577 L610.212,104.085 C609.466,103.712 609.094,103.899 608.533,104.458 C606.11,107.628 588.011,130.248 582.635,132.238 C581.695,132.586 577.773,132.703 577.773,132.703 L528.889,132.616 L528.889,132.627 L483.574,132.627 L483.574,132.607 C481.282,132.601 478.921,132.61 478.921,132.61 C476.683,132.61 475.004,131.678 475.004,128.881 L475.004,87.306 C475.004,72.95 470.343,68.848 466.057,64.373 C461.581,59.9 455.803,58.781 449.276,58.781 C438.091,58.781 427.463,65.866 421.869,73.137 L420.939,73.137 C417.024,64.373 409.564,58.781 399.872,58.781 C389.059,58.781 378.058,65.307 372.465,72.95 L371.906,72.95 L371.16,62.137 C371.16,60.832 370.601,59.527 369.482,59.527 C368.736,59.527 367.431,59.9 365.939,60.645 L349.533,69.035 C349.161,69.221 348.415,69.967 348.415,70.526 L348.415,72.018 C348.415,72.577 348.788,72.95 349.72,73.51 L353.634,75.561 C358.109,77.985 358.855,81.34 358.855,85.069 L358.855,118.254 C358.855,121.424 358.855,124.779 358.669,127.949 C358.482,131.492 357.55,132.61 355.872,132.61 L349.533,132.61 C347.669,132.61 347.296,132.797 347.296,134.289 L347.296,137.645 C347.296,138.949 347.669,139.322 348.788,139.322 C350.279,139.322 381.414,139.322 383.092,139.322 C384.397,139.322 384.584,138.576 384.584,137.272 L384.584,134.289 C384.584,132.983 384.397,132.61 382.719,132.61 L376.008,132.61 C373.397,132.61 372.279,130.746 372.279,127.763 L372.279,90.848 C372.279,85.628 372.652,82.086 374.889,78.356 C380.109,69.967 387.94,67.543 392.786,67.543 C396.888,67.543 402.294,68.662 404.719,70.899 C407.701,73.696 410.31,77.238 410.31,91.034 L410.31,129.441 C410.31,131.864 409.193,132.61 406.209,132.61 L400.802,132.61 C399.126,132.61 398.938,132.983 398.938,134.475 L398.938,137.457 C398.938,138.762 399.31,139.322 400.243,139.322 C401.361,139.322 433.057,139.322 434.361,139.322 C435.295,139.322 435.666,138.762 435.666,137.272 L435.666,134.289 C435.666,132.983 435.295,132.61 433.615,132.61 L427.276,132.61 C424.482,132.61 423.548,130.746 423.548,128.322 L423.548,96.068 C423.548,87.679 423.361,82.645 426.158,77.238 C429.142,71.832 436.786,67.543 442.378,67.543 C447.971,67.543 452.819,68.848 456.175,71.459 C460.463,74.815 461.581,80.221 461.581,86.374 L461.581,113.966 C461.581,118.068 461.581,124.779 461.209,129.068 C461.022,131.678 459.53,132.61 457.479,132.61 L452.819,132.61 C450.768,132.61 450.396,132.983 450.396,134.289 L450.396,137.457 C450.396,138.762 450.768,139.322 451.886,139.322 C453.191,139.322 595.938,139.322 596.832,139.322 C598.045,139.322 598.501,138.914 599.384,137.454 C600.101,136.268 610.771,111.916 613.196,107.255 C613.568,106.509 613.381,105.95 612.822,105.577" id="Fill-6" stroke="#000000" fill-rule="nonzero"></path>
            <path d="M652.683,64.373 C664.803,64.373 667.038,76.678 667.038,80.967 C667.038,82.645 665.549,83.577 662.006,83.577 L633.107,83.577 C636.65,69.781 644.482,64.373 652.683,64.373 Z M684.937,117.882 L682.515,116.576 C681.956,116.39 681.21,116.763 680.835,117.509 C677.667,123.662 669.651,130.186 658.276,130.186 C643.362,130.186 631.803,116.39 631.803,98.119 C631.803,93.831 631.99,90.848 632.361,89.171 L678.413,89.171 C681.394,89.171 683.632,88.798 683.632,86.187 C683.632,78.916 677.667,58.781 656.225,58.781 C646.904,58.781 637.583,60.459 629.565,68.662 C619.685,78.543 617.821,91.034 617.821,98.306 C617.821,111.357 619.498,118.254 626.024,127.763 C632.92,137.83 644.666,141 655.295,141 C671.886,141 681.581,128.135 684.937,120.678 C685.87,118.627 685.496,118.068 684.937,117.882 Z" id="Fill-7" stroke="#000000" fill-rule="nonzero"></path>
            <path d="M774.67,132.61 L768.705,132.61 C766.28,132.61 764.603,131.678 764.603,128.695 L764.603,80.594 C764.603,75.934 759.943,66.611 754.349,62.883 C749.873,59.9 744.095,58.781 738.501,58.781 C729.18,58.781 718.367,65.68 712.958,72.391 L712.587,72.391 L711.282,61.018 C711.095,59.527 710.723,58.781 709.79,58.781 C709.044,58.781 707.926,59.34 706.434,60.086 L690.402,69.035 C689.469,69.408 688.723,69.967 688.723,70.899 L688.723,71.832 C688.723,72.391 688.91,72.95 690.215,73.51 L691.707,74.255 C696.367,76.493 699.349,79.662 699.349,85.255 L699.349,128.881 C699.349,132.051 698.044,132.61 695.621,132.61 L690.215,132.61 C688.723,132.61 688.351,133.17 688.351,134.289 L688.351,137.645 C688.351,138.762 688.723,139.322 689.656,139.322 C690.773,139.322 721.162,139.322 722.469,139.322 C723.4,139.322 723.774,138.762 723.774,137.645 L723.774,134.475 C723.774,133.17 723.4,132.61 721.908,132.61 L717.247,132.61 C713.333,132.61 712.774,131.492 712.774,126.457 L712.774,87.866 C712.774,84.323 713.333,79.289 717.06,75.188 C722.654,69.221 729.18,67.916 732.162,67.916 C736.822,67.916 741.298,67.916 745.772,71.272 C751.178,75.188 751.178,80.594 751.178,88.052 L751.178,112.662 C751.178,117.509 750.994,123.475 750.807,128.322 C750.619,131.678 749.127,132.61 747.077,132.61 L741.67,132.61 C739.806,132.61 739.247,132.983 739.247,134.289 L739.247,137.272 C739.247,138.762 739.619,139.322 740.739,139.322 C742.044,139.322 773.924,139.322 775.229,139.322 C776.35,139.322 776.721,138.576 776.721,137.272 L776.721,134.289 C776.721,133.17 776.35,132.61 774.67,132.61" id="Fill-8" stroke="#000000" fill-rule="nonzero"></path>
        </g>
    </g>
</svg>